<mxfile host="app.diagrams.net" modified="2021-04-25T08:18:34.271Z" agent="5.0 (Windows NT 10.0; Win64; x64) AppleWebKit/537.36 (KHTML, like Gecko) Chrome/89.0.4389.90 Safari/537.36" etag="SVXigKq7mWNpZaqzamGD" version="14.6.5" type="github">
  <diagram id="bOyRfrAFXQZ3nRiqvsmU" name="第 1 页">
    <mxGraphModel dx="1422" dy="762" grid="1" gridSize="10" guides="1" tooltips="1" connect="1" arrows="1" fold="1" page="1" pageScale="1" pageWidth="1169" pageHeight="827" math="0" shadow="0">
      <root>
        <mxCell id="0" />
        <mxCell id="1" parent="0" />
        <mxCell id="jNHXBOzTHl3YnxRky6Tm-2" value="" style="rounded=0;whiteSpace=wrap;html=1;fontSize=14;" vertex="1" parent="1">
          <mxGeometry x="50" y="110" width="740" height="304" as="geometry" />
        </mxCell>
        <mxCell id="jNHXBOzTHl3YnxRky6Tm-49" value="" style="edgeStyle=orthogonalEdgeStyle;rounded=0;orthogonalLoop=1;jettySize=auto;html=1;" edge="1" parent="1" source="jNHXBOzTHl3YnxRky6Tm-48" target="jNHXBOzTHl3YnxRky6Tm-47">
          <mxGeometry relative="1" as="geometry" />
        </mxCell>
        <mxCell id="jNHXBOzTHl3YnxRky6Tm-48" value="" style="rounded=0;whiteSpace=wrap;html=1;" vertex="1" parent="1">
          <mxGeometry x="520" y="162" width="120" height="118" as="geometry" />
        </mxCell>
        <mxCell id="jNHXBOzTHl3YnxRky6Tm-6" style="edgeStyle=orthogonalEdgeStyle;rounded=0;orthogonalLoop=1;jettySize=auto;html=1;fontSize=13;" edge="1" parent="1" source="jNHXBOzTHl3YnxRky6Tm-8" target="jNHXBOzTHl3YnxRky6Tm-10">
          <mxGeometry relative="1" as="geometry">
            <Array as="points">
              <mxPoint x="140" y="210" />
            </Array>
          </mxGeometry>
        </mxCell>
        <mxCell id="jNHXBOzTHl3YnxRky6Tm-7" style="edgeStyle=orthogonalEdgeStyle;rounded=0;orthogonalLoop=1;jettySize=auto;html=1;entryX=0;entryY=0.5;entryDx=0;entryDy=0;fontSize=13;" edge="1" parent="1" source="jNHXBOzTHl3YnxRky6Tm-8" target="jNHXBOzTHl3YnxRky6Tm-12">
          <mxGeometry relative="1" as="geometry">
            <Array as="points">
              <mxPoint x="140" y="350" />
            </Array>
          </mxGeometry>
        </mxCell>
        <mxCell id="jNHXBOzTHl3YnxRky6Tm-8" value="图像&lt;br&gt;样本" style="shape=cylinder3;whiteSpace=wrap;html=1;boundedLbl=1;backgroundOutline=1;size=15;fontSize=13;" vertex="1" parent="1">
          <mxGeometry x="115" y="240" width="50" height="70" as="geometry" />
        </mxCell>
        <mxCell id="jNHXBOzTHl3YnxRky6Tm-54" value="" style="edgeStyle=orthogonalEdgeStyle;rounded=0;orthogonalLoop=1;jettySize=auto;html=1;" edge="1" parent="1" source="jNHXBOzTHl3YnxRky6Tm-10" target="jNHXBOzTHl3YnxRky6Tm-53">
          <mxGeometry relative="1" as="geometry" />
        </mxCell>
        <mxCell id="jNHXBOzTHl3YnxRky6Tm-10" value="图像切割" style="rounded=0;whiteSpace=wrap;html=1;horizontal=1;fontSize=13;" vertex="1" parent="1">
          <mxGeometry x="255" y="169.5" width="20" height="80" as="geometry" />
        </mxCell>
        <mxCell id="jNHXBOzTHl3YnxRky6Tm-56" value="" style="edgeStyle=orthogonalEdgeStyle;rounded=0;orthogonalLoop=1;jettySize=auto;html=1;" edge="1" parent="1" source="jNHXBOzTHl3YnxRky6Tm-12" target="jNHXBOzTHl3YnxRky6Tm-55">
          <mxGeometry relative="1" as="geometry" />
        </mxCell>
        <mxCell id="jNHXBOzTHl3YnxRky6Tm-12" value="图像切割" style="rounded=0;whiteSpace=wrap;html=1;fontSize=13;" vertex="1" parent="1">
          <mxGeometry x="255" y="309" width="20" height="82" as="geometry" />
        </mxCell>
        <mxCell id="jNHXBOzTHl3YnxRky6Tm-17" value="模型训练" style="rounded=0;whiteSpace=wrap;html=1;fontSize=13;" vertex="1" parent="1">
          <mxGeometry x="535" y="169.5" width="90" height="30" as="geometry" />
        </mxCell>
        <mxCell id="jNHXBOzTHl3YnxRky6Tm-21" value="模型评价" style="rounded=0;whiteSpace=wrap;html=1;fontSize=13;" vertex="1" parent="1">
          <mxGeometry x="535" y="204" width="90" height="30" as="geometry" />
        </mxCell>
        <mxCell id="jNHXBOzTHl3YnxRky6Tm-23" value="模型验证" style="rounded=0;whiteSpace=wrap;html=1;fontSize=13;" vertex="1" parent="1">
          <mxGeometry x="535" y="238" width="90" height="30" as="geometry" />
        </mxCell>
        <mxCell id="jNHXBOzTHl3YnxRky6Tm-25" value="图像分&lt;br&gt;类结果" style="shape=parallelogram;perimeter=parallelogramPerimeter;whiteSpace=wrap;html=1;fixedSize=1;dashed=1;fontSize=13;" vertex="1" parent="1">
          <mxGeometry x="670" y="345" width="90" height="35" as="geometry" />
        </mxCell>
        <mxCell id="jNHXBOzTHl3YnxRky6Tm-28" value="实时抽取" style="text;html=1;strokeColor=none;fillColor=none;align=center;verticalAlign=middle;whiteSpace=wrap;rounded=0;dashed=1;fontSize=13;" vertex="1" parent="1">
          <mxGeometry x="149" y="364" width="50" height="20" as="geometry" />
        </mxCell>
        <mxCell id="jNHXBOzTHl3YnxRky6Tm-29" value="选择性抽取" style="text;html=1;strokeColor=none;fillColor=none;align=center;verticalAlign=middle;whiteSpace=wrap;rounded=0;dashed=1;fontSize=13;" vertex="1" parent="1">
          <mxGeometry x="154" y="182" width="50" height="20" as="geometry" />
        </mxCell>
        <mxCell id="jNHXBOzTHl3YnxRky6Tm-30" value="" style="endArrow=none;dashed=1;html=1;fontSize=13;exitX=0.145;exitY=1.003;exitDx=0;exitDy=0;exitPerimeter=0;" edge="1" parent="1">
          <mxGeometry width="50" height="50" relative="1" as="geometry">
            <mxPoint x="209.20000000000005" y="414.96000000000004" as="sourcePoint" />
            <mxPoint x="209" y="150" as="targetPoint" />
          </mxGeometry>
        </mxCell>
        <mxCell id="jNHXBOzTHl3YnxRky6Tm-32" value="" style="endArrow=none;dashed=1;html=1;fontSize=13;exitX=0.145;exitY=1.003;exitDx=0;exitDy=0;exitPerimeter=0;" edge="1" parent="1">
          <mxGeometry width="50" height="50" relative="1" as="geometry">
            <mxPoint x="460" y="414.96000000000004" as="sourcePoint" />
            <mxPoint x="460" y="150" as="targetPoint" />
            <Array as="points">
              <mxPoint x="460" y="280" />
            </Array>
          </mxGeometry>
        </mxCell>
        <mxCell id="jNHXBOzTHl3YnxRky6Tm-33" value="" style="endArrow=none;dashed=1;html=1;fontSize=13;exitX=0.145;exitY=1.003;exitDx=0;exitDy=0;exitPerimeter=0;" edge="1" parent="1">
          <mxGeometry width="50" height="50" relative="1" as="geometry">
            <mxPoint x="651" y="413.96000000000004" as="sourcePoint" />
            <mxPoint x="651" y="150" as="targetPoint" />
          </mxGeometry>
        </mxCell>
        <mxCell id="jNHXBOzTHl3YnxRky6Tm-36" value="" style="endArrow=none;html=1;fontSize=13;" edge="1" parent="1">
          <mxGeometry width="50" height="50" relative="1" as="geometry">
            <mxPoint x="50" y="150" as="sourcePoint" />
            <mxPoint x="790" y="150" as="targetPoint" />
          </mxGeometry>
        </mxCell>
        <mxCell id="jNHXBOzTHl3YnxRky6Tm-37" value="" style="endArrow=none;html=1;fontSize=13;entryX=0.809;entryY=0.003;entryDx=0;entryDy=0;entryPerimeter=0;rounded=0;" edge="1" parent="1">
          <mxGeometry width="50" height="50" relative="1" as="geometry">
            <mxPoint x="650" y="150" as="sourcePoint" />
            <mxPoint x="649.6599999999999" y="110.91200000000003" as="targetPoint" />
            <Array as="points">
              <mxPoint x="671" y="130" />
            </Array>
          </mxGeometry>
        </mxCell>
        <mxCell id="jNHXBOzTHl3YnxRky6Tm-38" value="" style="endArrow=none;html=1;fontSize=13;entryX=0.809;entryY=0.003;entryDx=0;entryDy=0;entryPerimeter=0;rounded=0;" edge="1" parent="1">
          <mxGeometry width="50" height="50" relative="1" as="geometry">
            <mxPoint x="460" y="150" as="sourcePoint" />
            <mxPoint x="459.65999999999985" y="110.91200000000003" as="targetPoint" />
            <Array as="points">
              <mxPoint x="481" y="130" />
            </Array>
          </mxGeometry>
        </mxCell>
        <mxCell id="jNHXBOzTHl3YnxRky6Tm-40" value="" style="endArrow=none;html=1;fontSize=13;entryX=0.809;entryY=0.003;entryDx=0;entryDy=0;entryPerimeter=0;rounded=0;" edge="1" parent="1">
          <mxGeometry width="50" height="50" relative="1" as="geometry">
            <mxPoint x="210" y="150" as="sourcePoint" />
            <mxPoint x="209.65999999999985" y="110.91200000000003" as="targetPoint" />
            <Array as="points">
              <mxPoint x="231" y="130" />
            </Array>
          </mxGeometry>
        </mxCell>
        <mxCell id="jNHXBOzTHl3YnxRky6Tm-41" value="结果&amp;amp;反馈" style="text;html=1;strokeColor=none;fillColor=none;align=center;verticalAlign=middle;whiteSpace=wrap;rounded=0;labelBackgroundColor=#ffffff;fontSize=13;" vertex="1" parent="1">
          <mxGeometry x="691" y="121" width="70" height="20" as="geometry" />
        </mxCell>
        <mxCell id="jNHXBOzTHl3YnxRky6Tm-42" value="建模&amp;amp;应用" style="text;html=1;strokeColor=none;fillColor=none;align=center;verticalAlign=middle;whiteSpace=wrap;rounded=0;labelBackgroundColor=#ffffff;fontSize=13;" vertex="1" parent="1">
          <mxGeometry x="520" y="121" width="90" height="20" as="geometry" />
        </mxCell>
        <mxCell id="jNHXBOzTHl3YnxRky6Tm-43" value="数据预处理" style="text;html=1;strokeColor=none;fillColor=none;align=center;verticalAlign=middle;whiteSpace=wrap;rounded=0;labelBackgroundColor=#ffffff;fontSize=13;" vertex="1" parent="1">
          <mxGeometry x="365" y="121" width="90" height="20" as="geometry" />
        </mxCell>
        <mxCell id="jNHXBOzTHl3YnxRky6Tm-45" value="样本数据采集" style="text;html=1;strokeColor=none;fillColor=none;align=center;verticalAlign=middle;whiteSpace=wrap;rounded=0;labelBackgroundColor=#ffffff;fontSize=13;" vertex="1" parent="1">
          <mxGeometry x="109" y="121" width="90" height="20" as="geometry" />
        </mxCell>
        <mxCell id="jNHXBOzTHl3YnxRky6Tm-52" style="edgeStyle=orthogonalEdgeStyle;rounded=0;orthogonalLoop=1;jettySize=auto;html=1;entryX=1;entryY=0.5;entryDx=0;entryDy=0;" edge="1" parent="1" source="jNHXBOzTHl3YnxRky6Tm-47" target="jNHXBOzTHl3YnxRky6Tm-48">
          <mxGeometry relative="1" as="geometry">
            <mxPoint x="650" y="220" as="targetPoint" />
            <Array as="points">
              <mxPoint x="700" y="325" />
              <mxPoint x="700" y="220" />
            </Array>
          </mxGeometry>
        </mxCell>
        <mxCell id="jNHXBOzTHl3YnxRky6Tm-47" value="Model" style="ellipse;shape=cloud;whiteSpace=wrap;html=1;dashed=1;fontSize=13;" vertex="1" parent="1">
          <mxGeometry x="540" y="300" width="80" height="50" as="geometry" />
        </mxCell>
        <mxCell id="jNHXBOzTHl3YnxRky6Tm-35" value="模型优化" style="text;html=1;strokeColor=none;fillColor=none;align=center;verticalAlign=middle;whiteSpace=wrap;rounded=0;fontSize=13;labelBackgroundColor=#ffffff;" vertex="1" parent="1">
          <mxGeometry x="651" y="250" width="109" height="20" as="geometry" />
        </mxCell>
        <mxCell id="jNHXBOzTHl3YnxRky6Tm-53" value="提取颜色矩特征" style="rounded=0;whiteSpace=wrap;html=1;horizontal=1;fontSize=13;" vertex="1" parent="1">
          <mxGeometry x="330" y="160" width="20" height="120" as="geometry" />
        </mxCell>
        <mxCell id="jNHXBOzTHl3YnxRky6Tm-55" value="提取颜色矩特征" style="rounded=0;whiteSpace=wrap;html=1;horizontal=1;fontSize=13;" vertex="1" parent="1">
          <mxGeometry x="340" y="290" width="20" height="120" as="geometry" />
        </mxCell>
      </root>
    </mxGraphModel>
  </diagram>
</mxfile>
